<svg xmlns="http://www.w3.org/2000/svg" xmlns:xlink="http://www.w3.org/1999/xlink" width="500" zoomAndPan="magnify" viewBox="0 0 375 374.999991" height="500" preserveAspectRatio="xMidYMid meet" version="1.0"><defs><clipPath id="f23377e031"><path d="M 26.164062 20 L 348.664062 20 L 348.664062 355 L 26.164062 355 Z M 26.164062 20 " clip-rule="nonzero"/></clipPath></defs><g clip-path="url(#f23377e031)"><path fill="#99b83c" d="M 336.320312 20.691406 L 321.835938 30.613281 C 246.097656 82.476562 168.546875 189.847656 129.855469 277.140625 C 123.878906 268.765625 122.070312 265.992188 116.28125 256.679688 C 92.625 224.699219 62.636719 197.246094 48.402344 187.105469 L 26.164062 196.414062 L 26.871094 197.734375 C 42.222656 214.558594 69.164062 251.890625 109.765625 334.160156 C 112.253906 337.710938 114.910156 341.199219 117.933594 344.453125 C 125.878906 352.972656 134.027344 354.761719 139.460938 354.761719 C 139.46875 354.761719 139.46875 354.761719 139.46875 354.761719 C 154.96875 354.761719 164.109375 342.511719 170.402344 328.171875 C 211.070312 177.078125 307.164062 73.058594 348.722656 37.433594 Z M 336.320312 20.691406 " fill-opacity="1" fill-rule="nonzero"/></g></svg>