<svg xmlns="http://www.w3.org/2000/svg" xmlns:xlink="http://www.w3.org/1999/xlink" width="500" zoomAndPan="magnify" viewBox="0 0 375 374.999991" height="500" preserveAspectRatio="xMidYMid meet" version="1.0"><defs><clipPath id="807c1e30f6"><path d="M 52 37.5 L 323 37.5 L 323 309.75 L 52 309.75 Z M 52 37.5 " clip-rule="nonzero"/></clipPath></defs><g clip-path="url(#807c1e30f6)"><path fill="#457b4f" d="M 74.976562 309.210938 C 75.765625 309.207031 76.542969 309.105469 77.308594 308.902344 L 128.394531 294.710938 C 137.59375 299.222656 147.183594 302.628906 157.164062 304.933594 C 167.148438 307.238281 177.261719 308.382812 187.503906 308.363281 C 189.722656 308.363281 191.9375 308.308594 194.152344 308.199219 C 196.363281 308.089844 198.574219 307.925781 200.78125 307.707031 C 202.984375 307.492188 205.183594 307.21875 207.378906 306.894531 C 209.570312 306.570312 211.753906 306.191406 213.925781 305.757812 C 216.101562 305.324219 218.261719 304.839844 220.414062 304.300781 C 222.5625 303.761719 224.699219 303.171875 226.820312 302.527344 C 228.9375 301.882812 231.042969 301.1875 233.128906 300.441406 C 235.21875 299.695312 237.285156 298.898438 239.332031 298.050781 C 241.378906 297.199219 243.40625 296.300781 245.410156 295.355469 C 247.414062 294.40625 249.390625 293.410156 251.347656 292.367188 C 253.300781 291.320312 255.226562 290.226562 257.128906 289.089844 C 259.03125 287.949219 260.902344 286.761719 262.746094 285.53125 C 264.589844 284.300781 266.398438 283.023438 268.179688 281.703125 C 269.960938 280.382812 271.707031 279.019531 273.417969 277.613281 C 275.132812 276.207031 276.8125 274.761719 278.453125 273.273438 C 280.09375 271.785156 281.699219 270.253906 283.265625 268.6875 C 284.832031 267.121094 286.363281 265.515625 287.851562 263.875 C 289.339844 262.230469 290.785156 260.554688 292.191406 258.839844 C 293.597656 257.125 294.960938 255.378906 296.28125 253.597656 C 297.601562 251.820312 298.875 250.007812 300.109375 248.164062 C 301.339844 246.320312 302.523438 244.449219 303.664062 242.546875 C 304.804688 240.648438 305.894531 238.71875 306.941406 236.765625 C 307.984375 234.808594 308.980469 232.828125 309.929688 230.828125 C 310.875 228.824219 311.773438 226.796875 312.621094 224.75 C 313.46875 222.703125 314.265625 220.632812 315.011719 218.546875 C 315.757812 216.460938 316.453125 214.355469 317.097656 212.234375 C 317.742188 210.113281 318.332031 207.976562 318.871094 205.828125 C 319.410156 203.679688 319.894531 201.515625 320.328125 199.34375 C 320.757812 197.167969 321.136719 194.984375 321.460938 192.792969 C 321.789062 190.601562 322.058594 188.402344 322.273438 186.195312 C 322.492188 183.988281 322.65625 181.78125 322.765625 179.566406 C 322.871094 177.351562 322.925781 175.136719 322.925781 172.921875 C 322.925781 170.703125 322.871094 168.488281 322.761719 166.277344 C 322.652344 164.0625 322.492188 161.851562 322.273438 159.648438 C 322.054688 157.441406 321.785156 155.242188 321.460938 153.050781 C 321.132812 150.855469 320.753906 148.675781 320.324219 146.5 C 319.890625 144.328125 319.402344 142.164062 318.867188 140.015625 C 318.328125 137.863281 317.734375 135.730469 317.09375 133.609375 C 316.449219 131.488281 315.753906 129.382812 315.007812 127.296875 C 314.257812 125.210938 313.460938 123.140625 312.613281 121.09375 C 311.765625 119.046875 310.867188 117.019531 309.917969 115.019531 C 308.972656 113.015625 307.976562 111.035156 306.929688 109.082031 C 305.886719 107.125 304.792969 105.199219 303.652344 103.296875 C 302.515625 101.394531 301.328125 99.523438 300.097656 97.679688 C 298.867188 95.839844 297.589844 94.027344 296.269531 92.246094 C 294.949219 90.46875 293.585938 88.71875 292.179688 87.007812 C 290.773438 85.292969 289.324219 83.617188 287.835938 81.972656 C 286.347656 80.332031 284.820312 78.726562 283.253906 77.160156 C 281.683594 75.59375 280.082031 74.066406 278.4375 72.578125 C 276.796875 71.089844 275.117188 69.640625 273.40625 68.234375 C 271.691406 66.828125 269.945312 65.464844 268.164062 64.144531 C 266.382812 62.824219 264.570312 61.550781 262.730469 60.320312 C 260.886719 59.085938 259.015625 57.902344 257.113281 56.761719 C 255.210938 55.625 253.285156 54.53125 251.328125 53.488281 C 249.375 52.441406 247.394531 51.445312 245.390625 50.5 C 243.386719 49.550781 241.363281 48.652344 239.3125 47.804688 C 237.265625 46.957031 235.199219 46.160156 233.113281 45.414062 C 231.023438 44.667969 228.921875 43.972656 226.800781 43.328125 C 224.679688 42.683594 222.542969 42.09375 220.394531 41.554688 C 218.242188 41.019531 216.082031 40.53125 213.90625 40.101562 C 211.734375 39.667969 209.550781 39.289062 207.359375 38.964844 C 205.164062 38.640625 202.964844 38.367188 200.761719 38.152344 C 198.554688 37.933594 196.34375 37.769531 194.132812 37.664062 C 191.917969 37.554688 189.703125 37.5 187.484375 37.5 C 185.269531 37.5 183.054688 37.554688 180.839844 37.664062 C 178.625 37.773438 176.417969 37.9375 174.210938 38.152344 C 172.003906 38.371094 169.804688 38.640625 167.613281 38.96875 C 165.421875 39.292969 163.238281 39.671875 161.066406 40.105469 C 158.890625 40.535156 156.730469 41.023438 154.578125 41.5625 C 152.429688 42.101562 150.292969 42.691406 148.171875 43.335938 C 146.050781 43.976562 143.949219 44.671875 141.859375 45.421875 C 139.773438 46.167969 137.707031 46.964844 135.660156 47.8125 C 133.613281 48.660156 131.585938 49.558594 129.582031 50.507812 C 127.578125 51.453125 125.601562 52.449219 123.644531 53.496094 C 121.691406 54.542969 119.761719 55.632812 117.863281 56.773438 C 115.960938 57.914062 114.089844 59.097656 112.246094 60.328125 C 110.402344 61.5625 108.59375 62.835938 106.8125 64.15625 C 105.03125 65.476562 103.285156 66.839844 101.570312 68.246094 C 99.859375 69.652344 98.179688 71.101562 96.539062 72.589844 C 94.894531 74.078125 93.292969 75.605469 91.726562 77.171875 C 90.15625 78.742188 88.628906 80.347656 87.140625 81.988281 C 85.652344 83.628906 84.207031 85.308594 82.800781 87.023438 C 81.394531 88.734375 80.03125 90.480469 78.710938 92.261719 C 77.390625 94.042969 76.113281 95.855469 74.882812 97.699219 C 73.652344 99.539062 72.46875 101.414062 71.328125 103.3125 C 70.1875 105.214844 69.097656 107.144531 68.050781 109.097656 C 67.007812 111.050781 66.011719 113.03125 65.0625 115.035156 C 64.117188 117.039062 63.21875 119.066406 62.371094 121.113281 C 61.523438 123.160156 60.726562 125.226562 59.976562 127.316406 C 59.230469 129.402344 58.535156 131.503906 57.894531 133.625 C 57.25 135.746094 56.660156 137.882812 56.121094 140.035156 C 55.582031 142.183594 55.097656 144.34375 54.664062 146.519531 C 54.234375 148.691406 53.855469 150.875 53.527344 153.070312 C 53.203125 155.261719 52.933594 157.460938 52.714844 159.667969 C 52.5 161.871094 52.335938 164.082031 52.226562 166.296875 C 52.117188 168.507812 52.066406 170.722656 52.066406 172.941406 C 52.054688 179.851562 52.578125 186.722656 53.632812 193.554688 C 54.683594 200.386719 56.257812 207.09375 58.347656 213.683594 C 60.4375 220.269531 63.019531 226.65625 66.097656 232.847656 C 69.175781 239.035156 72.710938 244.949219 76.703125 250.59375 L 66.421875 298.644531 C 66.285156 299.28125 66.21875 299.925781 66.226562 300.578125 C 66.234375 301.230469 66.316406 301.871094 66.46875 302.503906 C 66.617188 303.140625 66.839844 303.75 67.125 304.335938 C 67.414062 304.917969 67.765625 305.464844 68.175781 305.972656 C 68.585938 306.480469 69.046875 306.933594 69.558594 307.335938 C 70.070312 307.742188 70.617188 308.082031 71.207031 308.363281 C 71.796875 308.644531 72.40625 308.855469 73.042969 309 C 73.679688 309.144531 74.324219 309.214844 74.976562 309.214844 Z M 187.503906 54.988281 C 189.433594 54.988281 191.363281 55.035156 193.292969 55.132812 C 195.21875 55.226562 197.144531 55.371094 199.0625 55.558594 C 200.984375 55.75 202.898438 55.984375 204.808594 56.269531 C 206.714844 56.554688 208.617188 56.882812 210.507812 57.261719 C 212.402344 57.636719 214.285156 58.0625 216.15625 58.53125 C 218.027344 59 219.886719 59.515625 221.734375 60.074219 C 223.578125 60.636719 225.410156 61.242188 227.226562 61.894531 C 229.046875 62.542969 230.84375 63.238281 232.628906 63.976562 C 234.410156 64.714844 236.175781 65.5 237.917969 66.324219 C 239.664062 67.148438 241.386719 68.019531 243.085938 68.925781 C 244.789062 69.835938 246.46875 70.789062 248.121094 71.78125 C 249.777344 72.773438 251.40625 73.804688 253.011719 74.878906 C 254.617188 75.953125 256.191406 77.0625 257.742188 78.210938 C 259.292969 79.363281 260.8125 80.550781 262.304688 81.773438 C 263.796875 83 265.257812 84.257812 266.6875 85.554688 C 268.117188 86.851562 269.511719 88.183594 270.878906 89.546875 C 272.242188 90.910156 273.570312 92.308594 274.867188 93.738281 C 276.164062 95.167969 277.421875 96.628906 278.648438 98.121094 C 279.871094 99.613281 281.058594 101.136719 282.207031 102.6875 C 283.355469 104.234375 284.46875 105.8125 285.539062 107.417969 C 286.609375 109.023438 287.644531 110.652344 288.636719 112.308594 C 289.628906 113.964844 290.578125 115.640625 291.488281 117.34375 C 292.398438 119.046875 293.265625 120.769531 294.089844 122.515625 C 294.914062 124.257812 295.695312 126.023438 296.433594 127.804688 C 297.171875 129.589844 297.867188 131.386719 298.515625 133.207031 C 299.167969 135.023438 299.769531 136.855469 300.332031 138.703125 C 300.890625 140.546875 301.40625 142.40625 301.875 144.28125 C 302.34375 146.152344 302.765625 148.035156 303.144531 149.925781 C 303.519531 151.820312 303.847656 153.71875 304.132812 155.628906 C 304.414062 157.539062 304.652344 159.453125 304.839844 161.375 C 305.03125 163.292969 305.171875 165.21875 305.265625 167.144531 C 305.359375 169.074219 305.40625 171 305.40625 172.929688 C 305.40625 174.859375 305.359375 176.789062 305.265625 178.71875 C 305.171875 180.644531 305.03125 182.570312 304.839844 184.488281 C 304.652344 186.410156 304.414062 188.324219 304.132812 190.234375 C 303.847656 192.140625 303.519531 194.042969 303.144531 195.9375 C 302.765625 197.828125 302.34375 199.710938 301.875 201.582031 C 301.40625 203.453125 300.890625 205.3125 300.332031 207.160156 C 299.769531 209.007812 299.167969 210.839844 298.515625 212.65625 C 297.867188 214.472656 297.171875 216.273438 296.433594 218.058594 C 295.695312 219.839844 294.914062 221.601562 294.089844 223.347656 C 293.265625 225.09375 292.398438 226.816406 291.488281 228.519531 C 290.578125 230.21875 289.628906 231.898438 288.636719 233.554688 C 287.644531 235.210938 286.609375 236.839844 285.539062 238.445312 C 284.46875 240.050781 283.355469 241.625 282.207031 243.175781 C 281.058594 244.726562 279.871094 246.246094 278.648438 247.738281 C 277.421875 249.230469 276.164062 250.691406 274.867188 252.121094 C 273.570312 253.554688 272.242188 254.949219 270.878906 256.316406 C 269.511719 257.679688 268.117188 259.011719 266.6875 260.308594 C 265.257812 261.601562 263.796875 262.863281 262.304688 264.089844 C 260.8125 265.3125 259.292969 266.5 257.742188 267.648438 C 256.191406 268.800781 254.617188 269.910156 253.011719 270.984375 C 251.40625 272.054688 249.777344 273.089844 248.121094 274.082031 C 246.46875 275.074219 244.789062 276.023438 243.085938 276.933594 C 241.386719 277.84375 239.664062 278.710938 237.917969 279.539062 C 236.175781 280.363281 234.410156 281.144531 232.628906 281.886719 C 230.84375 282.625 229.046875 283.320312 227.226562 283.96875 C 225.410156 284.621094 223.578125 285.226562 221.734375 285.785156 C 219.886719 286.347656 218.027344 286.863281 216.15625 287.332031 C 214.285156 287.800781 212.402344 288.222656 210.507812 288.601562 C 208.617188 288.976562 206.714844 289.308594 204.808594 289.59375 C 202.898438 289.875 200.984375 290.113281 199.0625 290.304688 C 197.144531 290.492188 195.21875 290.636719 193.292969 290.730469 C 191.363281 290.824219 189.433594 290.875 187.503906 290.875 C 178.074219 290.890625 168.777344 289.777344 159.617188 287.535156 C 150.457031 285.296875 141.695312 281.992188 133.335938 277.621094 C 132.351562 277.125 131.3125 276.820312 130.214844 276.703125 C 129.117188 276.589844 128.039062 276.671875 126.972656 276.953125 L 86.554688 288.175781 L 94.625 250.445312 C 94.886719 249.214844 94.886719 247.980469 94.613281 246.75 C 94.34375 245.519531 93.832031 244.398438 93.078125 243.386719 C 91.445312 241.210938 89.894531 238.980469 88.417969 236.699219 C 86.941406 234.414062 85.546875 232.082031 84.230469 229.703125 C 82.917969 227.324219 81.683594 224.898438 80.539062 222.433594 C 79.390625 219.96875 78.332031 217.46875 77.359375 214.929688 C 76.382812 212.390625 75.5 209.820312 74.703125 207.21875 C 73.910156 204.621094 73.203125 201.996094 72.589844 199.347656 C 71.976562 196.699219 71.453125 194.03125 71.023438 191.347656 C 70.597656 188.660156 70.261719 185.964844 70.019531 183.257812 C 69.777344 180.546875 69.628906 177.835938 69.574219 175.117188 C 69.519531 172.398438 69.558594 169.679688 69.691406 166.964844 C 69.824219 164.25 70.054688 161.542969 70.375 158.84375 C 70.695312 156.140625 71.109375 153.457031 71.617188 150.785156 C 72.125 148.113281 72.722656 145.464844 73.414062 142.832031 C 74.105469 140.203125 74.886719 137.601562 75.757812 135.023438 C 76.628906 132.449219 77.585938 129.90625 78.636719 127.398438 C 79.683594 124.886719 80.816406 122.417969 82.035156 119.988281 C 83.25 117.558594 84.550781 115.171875 85.9375 112.832031 C 87.320312 110.488281 88.78125 108.199219 90.324219 105.960938 C 91.867188 103.722656 93.484375 101.539062 95.179688 99.410156 C 96.871094 97.28125 98.636719 95.21875 100.472656 93.210938 C 102.308594 91.207031 104.214844 89.269531 106.183594 87.394531 C 108.15625 85.519531 110.1875 83.71875 112.285156 81.984375 C 114.378906 80.253906 116.53125 78.597656 118.742188 77.011719 C 120.953125 75.429688 123.214844 73.925781 125.53125 72.496094 C 127.847656 71.070312 130.207031 69.726562 132.617188 68.464844 C 135.023438 67.199219 137.472656 66.023438 139.960938 64.929688 C 142.449219 63.835938 144.976562 62.828125 147.535156 61.910156 C 150.09375 60.992188 152.683594 60.164062 155.296875 59.425781 C 157.914062 58.683594 160.554688 58.039062 163.214844 57.480469 C 165.875 56.925781 168.554688 56.460938 171.246094 56.089844 C 173.941406 55.71875 176.644531 55.441406 179.359375 55.257812 C 182.070312 55.074219 184.785156 54.984375 187.503906 54.988281 Z M 187.503906 54.988281 " fill-opacity="1" fill-rule="nonzero"/></g></svg>