<svg xmlns="http://www.w3.org/2000/svg" xmlns:xlink="http://www.w3.org/1999/xlink" width="500" zoomAndPan="magnify" viewBox="0 0 375 374.999991" height="500" preserveAspectRatio="xMidYMid meet" version="1.0"><defs><clipPath id="5aec38d50b"><path d="M 15.660156 15.660156 L 359.160156 15.660156 L 359.160156 359.160156 L 15.660156 359.160156 Z M 15.660156 15.660156 " clip-rule="nonzero"/></clipPath></defs><rect x="-37.5" width="450" fill="#ffffff" y="-37.499999" height="449.999989" fill-opacity="1"/><rect x="-37.5" width="450" fill="#ffffff" y="-37.499999" height="449.999989" fill-opacity="1"/><g clip-path="url(#5aec38d50b)"><path fill="#457b4f" d="M 187.496094 15.660156 C 184.6875 15.660156 181.875 15.730469 179.066406 15.867188 C 176.257812 16.003906 173.453125 16.210938 170.65625 16.488281 C 167.855469 16.761719 165.066406 17.105469 162.285156 17.519531 C 159.503906 17.933594 156.730469 18.414062 153.972656 18.960938 C 151.214844 19.511719 148.472656 20.125 145.746094 20.808594 C 143.015625 21.492188 140.308594 22.242188 137.617188 23.058594 C 134.925781 23.875 132.253906 24.757812 129.609375 25.703125 C 126.960938 26.652344 124.335938 27.664062 121.738281 28.742188 C 119.140625 29.816406 116.570312 30.957031 114.027344 32.160156 C 111.484375 33.359375 108.972656 34.625 106.492188 35.949219 C 104.015625 37.277344 101.566406 38.660156 99.15625 40.109375 C 96.742188 41.554688 94.367188 43.058594 92.03125 44.621094 C 89.691406 46.183594 87.394531 47.800781 85.132812 49.476562 C 82.875 51.152344 80.660156 52.882812 78.484375 54.664062 C 76.3125 56.449219 74.183594 58.285156 72.097656 60.175781 C 70.015625 62.0625 67.980469 64 65.988281 65.988281 C 64 67.980469 62.0625 70.015625 60.175781 72.097656 C 58.285156 74.183594 56.449219 76.3125 54.664062 78.484375 C 52.882812 80.660156 51.152344 82.875 49.476562 85.132812 C 47.800781 87.394531 46.183594 89.691406 44.621094 92.03125 C 43.058594 94.367188 41.554688 96.742188 40.109375 99.15625 C 38.660156 101.566406 37.277344 104.015625 35.949219 106.492188 C 34.625 108.972656 33.359375 111.484375 32.160156 114.027344 C 30.957031 116.570312 29.816406 119.140625 28.742188 121.738281 C 27.664062 124.335938 26.652344 126.960938 25.703125 129.609375 C 24.757812 132.253906 23.875 134.925781 23.058594 137.617188 C 22.242188 140.308594 21.492188 143.015625 20.808594 145.746094 C 20.125 148.472656 19.511719 151.214844 18.960938 153.972656 C 18.414062 156.730469 17.933594 159.503906 17.519531 162.285156 C 17.105469 165.066406 16.761719 167.855469 16.488281 170.65625 C 16.210938 173.453125 16.003906 176.257812 15.867188 179.066406 C 15.730469 181.875 15.660156 184.6875 15.660156 187.496094 C 15.660156 190.308594 15.730469 193.121094 15.867188 195.929688 C 16.003906 198.738281 16.210938 201.542969 16.488281 204.339844 C 16.761719 207.140625 17.105469 209.929688 17.519531 212.710938 C 17.933594 215.492188 18.414062 218.261719 18.960938 221.023438 C 19.511719 223.78125 20.125 226.523438 20.808594 229.25 C 21.492188 231.980469 22.242188 234.6875 23.058594 237.378906 C 23.875 240.070312 24.757812 242.742188 25.703125 245.386719 C 26.652344 248.035156 27.664062 250.660156 28.742188 253.257812 C 29.816406 255.855469 30.957031 258.425781 32.160156 260.96875 C 33.359375 263.511719 34.625 266.023438 35.949219 268.5 C 37.277344 270.980469 38.660156 273.429688 40.109375 275.839844 C 41.554688 278.253906 43.058594 280.628906 44.621094 282.964844 C 46.183594 285.304688 47.800781 287.601562 49.476562 289.863281 C 51.152344 292.121094 52.882812 294.335938 54.664062 296.511719 C 56.449219 298.683594 58.285156 300.8125 60.175781 302.898438 C 62.0625 304.980469 64 307.015625 65.988281 309.003906 C 67.980469 310.996094 70.015625 312.933594 72.097656 314.820312 C 74.183594 316.710938 76.3125 318.546875 78.484375 320.332031 C 80.660156 322.113281 82.875 323.84375 85.132812 325.519531 C 87.394531 327.195312 89.691406 328.8125 92.03125 330.375 C 94.367188 331.9375 96.742188 333.441406 99.15625 334.886719 C 101.566406 336.332031 104.015625 337.71875 106.492188 339.046875 C 108.972656 340.371094 111.484375 341.636719 114.027344 342.835938 C 116.570312 344.039062 119.140625 345.179688 121.738281 346.253906 C 124.335938 347.332031 126.960938 348.34375 129.609375 349.289062 C 132.253906 350.238281 134.925781 351.121094 137.617188 351.9375 C 140.308594 352.753906 143.015625 353.503906 145.746094 354.1875 C 148.472656 354.871094 151.214844 355.484375 153.972656 356.035156 C 156.730469 356.582031 159.503906 357.0625 162.285156 357.476562 C 165.066406 357.886719 167.855469 358.234375 170.65625 358.507812 C 173.453125 358.785156 176.257812 358.992188 179.066406 359.128906 C 181.875 359.265625 184.6875 359.335938 187.496094 359.335938 C 190.308594 359.335938 193.121094 359.265625 195.929688 359.128906 C 198.738281 358.992188 201.542969 358.785156 204.339844 358.507812 C 207.140625 358.234375 209.929688 357.886719 212.710938 357.476562 C 215.492188 357.0625 218.261719 356.582031 221.023438 356.035156 C 223.78125 355.484375 226.523438 354.871094 229.25 354.1875 C 231.980469 353.503906 234.6875 352.753906 237.378906 351.9375 C 240.070312 351.121094 242.742188 350.238281 245.386719 349.289062 C 248.035156 348.34375 250.660156 347.332031 253.257812 346.253906 C 255.855469 345.179688 258.425781 344.039062 260.96875 342.835938 C 263.511719 341.636719 266.023438 340.371094 268.5 339.046875 C 270.980469 337.71875 273.429688 336.332031 275.839844 334.886719 C 278.253906 333.441406 280.628906 331.9375 282.964844 330.375 C 285.304688 328.8125 287.601562 327.195312 289.863281 325.519531 C 292.121094 323.84375 294.335938 322.113281 296.511719 320.332031 C 298.683594 318.546875 300.8125 316.710938 302.898438 314.820312 C 304.980469 312.933594 307.015625 310.996094 309.003906 309.003906 C 310.996094 307.015625 312.933594 304.980469 314.820312 302.898438 C 316.710938 300.8125 318.546875 298.683594 320.332031 296.511719 C 322.113281 294.335938 323.84375 292.121094 325.519531 289.863281 C 327.195312 287.601562 328.8125 285.304688 330.375 282.964844 C 331.9375 280.628906 333.441406 278.253906 334.886719 275.839844 C 336.332031 273.429688 337.71875 270.980469 339.046875 268.5 C 340.371094 266.023438 341.636719 263.511719 342.835938 260.96875 C 344.039062 258.425781 345.179688 255.855469 346.253906 253.257812 C 347.332031 250.660156 348.34375 248.035156 349.289062 245.386719 C 350.238281 242.742188 351.121094 240.070312 351.9375 237.378906 C 352.753906 234.6875 353.503906 231.980469 354.1875 229.25 C 354.871094 226.523438 355.484375 223.78125 356.035156 221.023438 C 356.582031 218.261719 357.0625 215.492188 357.476562 212.710938 C 357.886719 209.929688 358.234375 207.140625 358.507812 204.339844 C 358.785156 201.542969 358.992188 198.738281 359.128906 195.929688 C 359.265625 193.121094 359.335938 190.308594 359.335938 187.496094 C 359.335938 184.6875 359.265625 181.875 359.128906 179.066406 C 358.988281 176.257812 358.78125 173.453125 358.507812 170.65625 C 358.230469 167.855469 357.886719 165.066406 357.472656 162.285156 C 357.058594 159.503906 356.578125 156.734375 356.03125 153.976562 C 355.480469 151.21875 354.867188 148.472656 354.183594 145.746094 C 353.5 143.019531 352.75 140.308594 351.933594 137.617188 C 351.113281 134.925781 350.234375 132.257812 349.285156 129.609375 C 348.339844 126.960938 347.324219 124.339844 346.25 121.742188 C 345.171875 119.144531 344.035156 116.574219 342.832031 114.03125 C 341.628906 111.488281 340.363281 108.976562 339.039062 106.5 C 337.714844 104.019531 336.328125 101.574219 334.882812 99.160156 C 333.4375 96.75 331.933594 94.375 330.371094 92.035156 C 328.808594 89.695312 327.1875 87.398438 325.511719 85.140625 C 323.835938 82.882812 322.109375 80.664062 320.324219 78.492188 C 318.539062 76.316406 316.703125 74.1875 314.816406 72.105469 C 312.925781 70.019531 310.988281 67.984375 309 65.996094 C 307.011719 64.007812 304.976562 62.070312 302.890625 60.179688 C 300.808594 58.292969 298.679688 56.457031 296.503906 54.671875 C 294.332031 52.886719 292.113281 51.160156 289.855469 49.484375 C 287.597656 47.808594 285.300781 46.1875 282.960938 44.625 C 280.621094 43.0625 278.246094 41.558594 275.835938 40.113281 C 273.421875 38.667969 270.976562 37.28125 268.496094 35.957031 C 266.015625 34.632812 263.507812 33.367188 260.964844 32.164062 C 258.421875 30.960938 255.851562 29.824219 253.253906 28.746094 C 250.65625 27.667969 248.03125 26.65625 245.386719 25.710938 C 242.738281 24.761719 240.070312 23.878906 237.378906 23.0625 C 234.6875 22.246094 231.976562 21.496094 229.25 20.8125 C 226.519531 20.128906 223.777344 19.515625 221.019531 18.964844 C 218.261719 18.417969 215.492188 17.9375 212.710938 17.523438 C 209.929688 17.109375 207.140625 16.765625 204.339844 16.488281 C 201.542969 16.214844 198.738281 16.007812 195.929688 15.867188 C 193.121094 15.730469 190.308594 15.660156 187.496094 15.660156 Z M 108.34375 102.707031 L 266.652344 102.707031 C 267.488281 102.707031 268.320312 102.742188 269.15625 102.816406 C 269.988281 102.890625 270.816406 103 271.640625 103.148438 C 272.460938 103.296875 273.277344 103.480469 274.082031 103.699219 C 274.890625 103.917969 275.6875 104.175781 276.46875 104.464844 C 277.253906 104.753906 278.023438 105.078125 278.78125 105.4375 C 279.535156 105.796875 280.273438 106.191406 280.992188 106.613281 C 281.714844 107.039062 282.414062 107.496094 283.09375 107.980469 C 283.773438 108.46875 284.429688 108.984375 285.066406 109.527344 C 285.699219 110.074219 286.308594 110.644531 286.890625 111.246094 C 287.476562 111.84375 288.03125 112.46875 288.558594 113.117188 C 289.085938 113.765625 289.582031 114.4375 290.050781 115.128906 C 290.519531 115.820312 290.957031 116.535156 291.363281 117.265625 C 291.765625 117.996094 292.136719 118.746094 292.476562 119.511719 C 292.816406 120.273438 293.121094 121.054688 293.390625 121.84375 C 293.65625 122.636719 293.890625 123.4375 294.089844 124.25 C 294.289062 125.0625 294.449219 125.882812 294.574219 126.710938 C 292.320312 127.945312 205.324219 178.101562 199.582031 181.375 C 197.738281 182.417969 195.792969 183.210938 193.746094 183.75 C 191.699219 184.289062 189.613281 184.558594 187.496094 184.558594 C 185.378906 184.558594 183.296875 184.289062 181.25 183.75 C 179.203125 183.210938 177.257812 182.417969 175.414062 181.375 C 169.777344 178.152344 82.570312 128.480469 80.421875 127.140625 C 80.535156 126.304688 80.683594 125.472656 80.871094 124.648438 C 81.058594 123.824219 81.28125 123.011719 81.539062 122.210938 C 81.800781 121.40625 82.09375 120.617188 82.425781 119.839844 C 82.757812 119.0625 83.121094 118.300781 83.523438 117.558594 C 83.921875 116.8125 84.351562 116.089844 84.816406 115.382812 C 85.28125 114.679688 85.777344 113.996094 86.304688 113.335938 C 86.828125 112.675781 87.382812 112.039062 87.964844 111.429688 C 88.550781 110.816406 89.160156 110.234375 89.792969 109.679688 C 90.429688 109.121094 91.089844 108.59375 91.769531 108.097656 C 92.453125 107.601562 93.15625 107.136719 93.882812 106.703125 C 94.605469 106.269531 95.347656 105.871094 96.109375 105.503906 C 96.871094 105.136719 97.644531 104.804688 98.4375 104.507812 C 99.226562 104.210938 100.027344 103.949219 100.84375 103.722656 C 101.65625 103.5 102.480469 103.3125 103.308594 103.160156 C 104.140625 103.011719 104.976562 102.894531 105.816406 102.820312 C 106.65625 102.746094 107.5 102.707031 108.34375 102.707031 Z M 294.898438 244.042969 C 294.894531 244.96875 294.847656 245.890625 294.757812 246.8125 C 294.664062 247.730469 294.53125 248.644531 294.347656 249.550781 C 294.167969 250.457031 293.941406 251.355469 293.671875 252.238281 C 293.402344 253.125 293.089844 253.992188 292.738281 254.847656 C 292.382812 255.703125 291.988281 256.535156 291.550781 257.351562 C 291.113281 258.167969 290.640625 258.957031 290.125 259.726562 C 289.613281 260.496094 289.0625 261.238281 288.472656 261.953125 C 287.886719 262.667969 287.265625 263.351562 286.613281 264.007812 C 285.960938 264.660156 285.273438 265.28125 284.558594 265.867188 C 283.84375 266.453125 283.105469 267.003906 282.335938 267.519531 C 281.566406 268.03125 280.773438 268.507812 279.957031 268.945312 C 279.144531 269.378906 278.308594 269.777344 277.453125 270.128906 C 276.601562 270.484375 275.730469 270.796875 274.847656 271.066406 C 273.960938 271.335938 273.066406 271.558594 272.160156 271.742188 C 271.253906 271.921875 270.339844 272.058594 269.417969 272.148438 C 268.496094 272.242188 267.574219 272.289062 266.652344 272.289062 L 108.34375 272.289062 C 107.421875 272.289062 106.496094 272.242188 105.578125 272.148438 C 104.65625 272.058594 103.742188 271.921875 102.835938 271.742188 C 101.929688 271.558594 101.035156 271.335938 100.148438 271.066406 C 99.265625 270.796875 98.394531 270.484375 97.542969 270.128906 C 96.6875 269.777344 95.851562 269.378906 95.035156 268.945312 C 94.222656 268.507812 93.429688 268.03125 92.660156 267.519531 C 91.890625 267.003906 91.148438 266.453125 90.433594 265.867188 C 89.71875 265.28125 89.035156 264.660156 88.382812 264.007812 C 87.726562 263.351562 87.109375 262.667969 86.519531 261.953125 C 85.933594 261.238281 85.382812 260.496094 84.871094 259.726562 C 84.355469 258.957031 83.882812 258.167969 83.445312 257.351562 C 83.007812 256.535156 82.613281 255.703125 82.257812 254.847656 C 81.902344 253.992188 81.59375 253.125 81.324219 252.238281 C 81.054688 251.355469 80.828125 250.457031 80.648438 249.550781 C 80.464844 248.644531 80.328125 247.730469 80.238281 246.8125 C 80.148438 245.890625 80.101562 244.96875 80.097656 244.042969 L 80.097656 139.972656 L 169.882812 191.203125 C 171.222656 191.964844 172.605469 192.636719 174.03125 193.222656 C 175.453125 193.804688 176.910156 194.292969 178.402344 194.6875 C 179.890625 195.082031 181.398438 195.378906 182.925781 195.578125 C 184.453125 195.777344 185.984375 195.875 187.523438 195.875 C 189.066406 195.875 190.597656 195.777344 192.125 195.578125 C 193.652344 195.378906 195.160156 195.082031 196.648438 194.6875 C 198.136719 194.292969 199.59375 193.804688 201.019531 193.222656 C 202.445312 192.636719 203.828125 191.964844 205.164062 191.203125 L 294.898438 139.542969 Z M 294.898438 244.042969 " fill-opacity="1" fill-rule="nonzero"/></g></svg>