<svg xmlns="http://www.w3.org/2000/svg" xmlns:xlink="http://www.w3.org/1999/xlink" width="500" zoomAndPan="magnify" viewBox="0 0 375 374.999991" height="500" preserveAspectRatio="xMidYMid meet" version="1.0"><defs><clipPath id="1ec60c8e33"><path d="M 18.367188 18.367188 L 356.617188 18.367188 L 356.617188 356.617188 L 18.367188 356.617188 Z M 18.367188 18.367188 " clip-rule="nonzero"/></clipPath></defs><g clip-path="url(#1ec60c8e33)"><path fill="#457b4f" d="M 307.085938 67.902344 C 275.140625 35.960938 232.671875 18.367188 187.496094 18.367188 C 142.320312 18.367188 99.847656 35.960938 67.902344 67.902344 C 35.960938 99.847656 18.367188 142.320312 18.367188 187.496094 C 18.367188 232.671875 35.960938 275.140625 67.902344 307.085938 C 99.847656 339.03125 142.320312 356.621094 187.496094 356.621094 C 232.671875 356.621094 275.140625 339.03125 307.085938 307.085938 C 339.03125 275.140625 356.621094 232.671875 356.621094 187.496094 C 356.621094 142.320312 339.03125 99.847656 307.085938 67.902344 Z M 75.578125 75.578125 C 105.472656 45.683594 145.21875 29.21875 187.496094 29.21875 C 229.773438 29.21875 269.519531 45.683594 299.410156 75.578125 C 329.304688 105.472656 345.769531 145.21875 345.769531 187.496094 C 345.769531 222.640625 334.382812 256.027344 313.371094 283.46875 C 296.648438 260.089844 269.945312 246.273438 240.949219 246.273438 L 134.042969 246.273438 C 105.042969 246.273438 78.339844 260.089844 61.617188 283.46875 C 40.605469 256.027344 29.21875 222.640625 29.21875 187.496094 C 29.21875 145.21875 45.683594 105.472656 75.578125 75.578125 Z M 187.496094 237.359375 C 230.949219 237.359375 266.300781 202.007812 266.300781 158.550781 C 266.300781 115.097656 230.949219 79.746094 187.496094 79.746094 C 144.042969 79.746094 108.6875 115.097656 108.6875 158.550781 C 108.6875 202.007812 144.042969 237.359375 187.496094 237.359375 Z M 187.496094 237.359375 " fill-opacity="1" fill-rule="nonzero"/></g></svg>