<svg xmlns="http://www.w3.org/2000/svg" xmlns:xlink="http://www.w3.org/1999/xlink" width="500" zoomAndPan="magnify" viewBox="0 0 375 374.999991" height="500" preserveAspectRatio="xMidYMid meet" version="1.0"><defs><clipPath id="3b65af581f"><path d="M 145 12.058594 L 232 12.058594 L 232 363 L 145 363 Z M 145 12.058594 " clip-rule="nonzero"/></clipPath></defs><path fill="#457b4f" d="M 130.15625 322.136719 L 248.574219 40.34375 " fill-opacity="1" fill-rule="nonzero"/><path fill="#457b4f" d="M 152.480469 328.171875 C 187.027344 246.105469 221.570312 163.890625 255.964844 81.828125 C 260.945312 70.0625 265.921875 58.292969 270.75 46.527344 C 275.578125 34.914062 265.46875 21.183594 254.609375 18.015625 C 241.332031 14.246094 230.925781 22.691406 226.097656 34.15625 C 191.550781 116.222656 157.007812 198.4375 122.613281 280.5 C 117.632812 292.265625 112.65625 304.035156 107.828125 315.800781 C 103 327.414062 113.109375 341.144531 123.96875 344.3125 C 137.246094 348.234375 147.652344 339.785156 152.480469 328.171875 Z M 152.480469 328.171875 " fill-opacity="1" fill-rule="nonzero"/><path fill="#457b4f" d="M 208.449219 339.03125 L 168.773438 36.117188 " fill-opacity="1" fill-rule="nonzero"/><g clip-path="url(#3b65af581f)"><path fill="#457b4f" d="M 231.527344 339.03125 C 219.914062 250.632812 208.449219 162.382812 196.832031 73.984375 C 195.171875 61.3125 193.511719 48.640625 191.855469 35.96875 C 190.195312 23.597656 182.351562 12.738281 168.621094 12.738281 C 157.308594 12.738281 143.730469 23.449219 145.390625 35.96875 C 157.007812 124.367188 168.472656 212.617188 180.085938 301.015625 C 181.746094 313.6875 183.40625 326.359375 185.066406 339.03125 C 186.726562 351.402344 194.570312 362.261719 208.296875 362.261719 C 219.609375 362.261719 233.1875 351.550781 231.527344 339.03125 Z M 231.527344 339.03125 " fill-opacity="1" fill-rule="nonzero"/></g><path fill="#457b4f" d="M 275.726562 301.320312 L 86.859375 61.007812 " fill-opacity="1" fill-rule="nonzero"/><path fill="#457b4f" d="M 292.019531 285.027344 C 236.957031 214.878906 182.046875 144.882812 126.988281 74.738281 C 119.144531 64.628906 111.148438 54.675781 103.304688 44.566406 C 95.457031 34.609375 78.714844 36.570312 70.566406 44.566406 C 60.761719 54.222656 62.875 67.496094 70.566406 77.300781 C 125.628906 147.449219 180.539062 217.445312 235.601562 287.589844 C 243.445312 297.699219 251.441406 307.652344 259.285156 317.761719 C 267.128906 327.71875 283.875 325.757812 292.019531 317.761719 C 301.824219 308.105469 299.714844 294.832031 292.019531 285.027344 Z M 292.019531 285.027344 " fill-opacity="1" fill-rule="nonzero"/><path fill="#457b4f" d="M 44.019531 151.824219 L 341.046875 223.78125 " fill-opacity="1" fill-rule="nonzero"/><path fill="#457b4f" d="M 38.890625 174.449219 C 125.476562 195.417969 212.066406 216.386719 298.65625 237.355469 C 311.027344 240.375 323.546875 243.390625 335.917969 246.40625 C 365.03125 253.5 374.988281 208.242188 346.027344 201.152344 C 259.4375 180.183594 172.847656 159.214844 86.257812 138.246094 C 73.886719 135.230469 61.367188 132.210938 48.996094 129.195312 C 20.03125 122.257812 9.925781 167.511719 38.890625 174.449219 Z M 38.890625 174.449219 " fill-opacity="1" fill-rule="nonzero"/><path fill="#457b4f" d="M 34.664062 215.179688 L 333.957031 153.785156 " fill-opacity="1" fill-rule="nonzero"/><path fill="#457b4f" d="M 39.644531 237.960938 C 126.835938 220.007812 214.179688 202.058594 301.375 184.105469 C 313.894531 181.542969 326.414062 178.976562 338.933594 176.414062 C 368.199219 170.378906 358.09375 125.121094 328.828125 131.15625 C 241.636719 149.109375 154.292969 167.058594 67.097656 185.011719 C 54.578125 187.574219 42.058594 190.140625 29.535156 192.703125 C 0.269531 198.585938 10.527344 243.84375 39.644531 237.960938 Z M 39.644531 237.960938 " fill-opacity="1" fill-rule="nonzero"/><path fill="#457b4f" d="M 76 277.9375 L 310.273438 81.675781 " fill-opacity="1" fill-rule="nonzero"/><path fill="#457b4f" d="M 92.289062 294.378906 C 160.628906 237.207031 228.964844 180.03125 297.148438 122.859375 C 306.953125 114.714844 316.761719 106.417969 326.566406 98.269531 C 349.496094 79.113281 316.457031 46.378906 293.832031 65.535156 C 225.492188 122.707031 157.15625 179.882812 88.972656 237.054688 C 79.167969 245.199219 69.359375 253.5 59.554688 261.644531 C 36.625 280.652344 69.511719 313.386719 92.289062 294.378906 Z M 92.289062 294.378906 " fill-opacity="1" fill-rule="nonzero"/></svg>