<svg xmlns="http://www.w3.org/2000/svg" xmlns:xlink="http://www.w3.org/1999/xlink" width="500" zoomAndPan="magnify" viewBox="0 0 375 374.999991" height="500" preserveAspectRatio="xMidYMid meet" version="1.0"><defs><g/><clipPath id="f13c4c8302"><path d="M 9.234375 8.882812 L 366.464844 8.882812 L 366.464844 366.117188 L 9.234375 366.117188 Z M 9.234375 8.882812 " clip-rule="nonzero"/></clipPath><clipPath id="c2b1403d18"><path d="M 187.847656 8.882812 C 89.203125 8.882812 9.234375 88.851562 9.234375 187.5 C 9.234375 286.148438 89.203125 366.117188 187.847656 366.117188 C 286.496094 366.117188 366.464844 286.148438 366.464844 187.5 C 366.464844 88.851562 286.496094 8.882812 187.847656 8.882812 Z M 187.847656 8.882812 " clip-rule="nonzero"/></clipPath><clipPath id="e728bffc31"><path d="M 9.234375 8.882812 L 366.460938 8.882812 L 366.460938 366.109375 L 9.234375 366.109375 Z M 9.234375 8.882812 " clip-rule="nonzero"/></clipPath><clipPath id="64192f92c0"><path d="M 187.847656 8.882812 C 89.203125 8.882812 9.234375 88.851562 9.234375 187.496094 C 9.234375 286.144531 89.203125 366.109375 187.847656 366.109375 C 286.492188 366.109375 366.460938 286.144531 366.460938 187.496094 C 366.460938 88.851562 286.492188 8.882812 187.847656 8.882812 Z M 187.847656 8.882812 " clip-rule="nonzero"/></clipPath><clipPath id="1bca3e9fec"><path d="M 129 111 L 159 111 L 159 141 L 129 141 Z M 129 111 " clip-rule="nonzero"/></clipPath><clipPath id="319eed020a"><path d="M 108.414062 109.417969 L 160.460938 111.140625 L 159.417969 142.5625 L 107.371094 140.839844 Z M 108.414062 109.417969 " clip-rule="nonzero"/></clipPath><clipPath id="74569c0caa"><path d="M 108.414062 109.417969 L 160.460938 111.140625 L 159.417969 142.5625 L 107.371094 140.839844 Z M 108.414062 109.417969 " clip-rule="nonzero"/></clipPath><clipPath id="a71a95e9bb"><path d="M 109 117 L 129 117 L 129 141 L 109 141 Z M 109 117 " clip-rule="nonzero"/></clipPath><clipPath id="17d2bfb08c"><path d="M 108.414062 109.417969 L 160.460938 111.140625 L 159.417969 142.5625 L 107.371094 140.839844 Z M 108.414062 109.417969 " clip-rule="nonzero"/></clipPath><clipPath id="72f9ca0f01"><path d="M 108.414062 109.417969 L 160.460938 111.140625 L 159.417969 142.5625 L 107.371094 140.839844 Z M 108.414062 109.417969 " clip-rule="nonzero"/></clipPath></defs><g clip-path="url(#f13c4c8302)"><g clip-path="url(#c2b1403d18)"><path fill="#e6e6e6" d="M 9.234375 8.882812 L 366.464844 8.882812 L 366.464844 366.117188 L 9.234375 366.117188 Z M 9.234375 8.882812 " fill-opacity="1" fill-rule="nonzero"/></g></g><g clip-path="url(#e728bffc31)"><g clip-path="url(#64192f92c0)"><path stroke-linecap="butt" transform="matrix(0.982529, 0, 0, 0.982529, 9.234108, 8.884501)" fill="none" stroke-linejoin="miter" d="M 181.789679 -0.00171862 C 81.391037 -0.00171862 0.000271938 81.389047 0.000271938 181.787688 C 0.000271938 282.190306 81.391037 363.577095 181.789679 363.577095 C 282.188321 363.577095 363.579086 282.190306 363.579086 181.787688 C 363.579086 81.389047 282.188321 -0.00171862 181.789679 -0.00171862 Z M 181.789679 -0.00171862 " stroke="#206d3c" stroke-width="3.053346" stroke-opacity="1" stroke-miterlimit="4"/></g></g><g fill="#206d3c" fill-opacity="1"><g transform="translate(71.24728, 184.742952)"><g><path d="M 21.953125 0.546875 C 21.597656 0.722656 21.144531 0.8125 20.59375 0.8125 C 20.019531 0.8125 19.566406 0.722656 19.234375 0.546875 L 5.359375 -32.84375 C 4.835938 -34.113281 4.363281 -35.054688 3.9375 -35.671875 C 3.519531 -36.296875 3.113281 -36.726562 2.71875 -36.96875 C 2.320312 -37.21875 1.765625 -37.445312 1.046875 -37.65625 C 0.285156 -37.894531 -0.410156 -38.15625 -1.046875 -38.4375 L -1.046875 -40.796875 L 19.375 -40.796875 C 19.375 -40.546875 19.40625 -40.179688 19.46875 -39.703125 C 19.550781 -39.210938 19.59375 -38.757812 19.59375 -38.34375 C 17.632812 -37.789062 16.171875 -37.257812 15.203125 -36.75 C 14.234375 -36.238281 13.75 -35.484375 13.75 -34.484375 C 13.75 -34.179688 13.820312 -33.769531 13.96875 -33.25 L 23.234375 -10.4375 L 31.03125 -29.453125 C 31.882812 -31.535156 32.3125 -33.132812 32.3125 -34.25 C 32.21875 -35.3125 31.707031 -36.117188 30.78125 -36.671875 C 29.863281 -37.234375 28.40625 -37.757812 26.40625 -38.25 C 26.375 -38.425781 26.359375 -38.773438 26.359375 -39.296875 C 26.359375 -39.660156 26.363281 -39.976562 26.375 -40.25 C 26.394531 -40.519531 26.40625 -40.703125 26.40625 -40.796875 L 43.28125 -40.796875 C 43.34375 -40.273438 43.375 -39.5 43.375 -38.46875 C 42.800781 -38.132812 42.242188 -37.863281 41.703125 -37.65625 C 40.816406 -37.257812 40.09375 -36.890625 39.53125 -36.546875 C 38.976562 -36.203125 38.390625 -35.664062 37.765625 -34.9375 C 37.148438 -34.207031 36.570312 -33.238281 36.03125 -32.03125 Z M 21.953125 0.546875 "/></g></g></g><g fill="#206d3c" fill-opacity="1"><g transform="translate(108.499349, 184.742952)"><g><path d="M 11.75 -23.859375 C 11.71875 -23.554688 11.703125 -23.117188 11.703125 -22.546875 C 11.703125 -18.734375 12.390625 -15.550781 13.765625 -13 C 15.140625 -10.445312 16.984375 -8.554688 19.296875 -7.328125 C 21.617188 -6.097656 24.21875 -5.484375 27.09375 -5.484375 C 30.894531 -5.484375 34.566406 -6.570312 38.109375 -8.75 L 39.421875 -7.484375 C 38.703125 -5.734375 37.488281 -4.222656 35.78125 -2.953125 C 34.070312 -1.679688 32.132812 -0.71875 29.96875 -0.0625 C 27.800781 0.582031 25.707031 0.90625 23.6875 0.90625 C 19.875 0.90625 16.445312 0.015625 13.40625 -1.765625 C 10.363281 -3.554688 7.988281 -6.050781 6.28125 -9.25 C 4.570312 -12.457031 3.71875 -16.132812 3.71875 -20.28125 C 3.71875 -24.488281 4.640625 -28.25 6.484375 -31.5625 C 8.328125 -34.875 10.785156 -37.441406 13.859375 -39.265625 C 16.929688 -41.097656 20.222656 -42.015625 23.734375 -42.015625 C 26.609375 -42.015625 29.203125 -41.429688 31.515625 -40.265625 C 33.828125 -39.097656 35.707031 -37.460938 37.15625 -35.359375 C 38.613281 -33.265625 39.535156 -30.851562 39.921875 -28.125 C 40.253906 -26.738281 40.421875 -25.457031 40.421875 -24.28125 L 40.421875 -23.859375 Z M 28.078125 -26.765625 C 29.410156 -26.828125 30.53125 -27.070312 31.4375 -27.5 C 31.226562 -31.09375 30.390625 -33.898438 28.921875 -35.921875 C 27.453125 -37.953125 25.375 -38.96875 22.6875 -38.96875 C 20.71875 -38.96875 18.96875 -38.378906 17.4375 -37.203125 C 15.914062 -36.023438 14.6875 -34.457031 13.75 -32.5 C 12.8125 -30.550781 12.207031 -28.414062 11.9375 -26.09375 Z M 28.078125 -26.765625 "/></g></g></g><g fill="#206d3c" fill-opacity="1"><g transform="translate(144.66257, 184.742952)"><g><path d="M 42.78125 -36.53125 C 42.113281 -36.738281 41.023438 -36.84375 39.515625 -36.84375 C 38.304688 -36.84375 37.035156 -36.789062 35.703125 -36.6875 C 34.378906 -36.582031 33.519531 -36.5 33.125 -36.4375 C 33.125 -36.5 33.457031 -36.066406 34.125 -35.140625 C 34.789062 -34.210938 35.382812 -33.148438 35.90625 -31.953125 C 36.4375 -30.765625 36.703125 -29.582031 36.703125 -28.40625 C 36.703125 -25.34375 35.929688 -22.722656 34.390625 -20.546875 C 32.847656 -18.367188 30.84375 -16.726562 28.375 -15.625 C 25.914062 -14.519531 23.335938 -13.96875 20.640625 -13.96875 C 19.128906 -13.96875 17.195312 -14.242188 14.84375 -14.796875 C 14.75 -14.734375 14.398438 -14.503906 13.796875 -14.109375 C 13.035156 -13.628906 12.476562 -13.179688 12.125 -12.765625 C 11.78125 -12.359375 11.609375 -11.78125 11.609375 -11.03125 C 11.609375 -10.269531 12 -9.695312 12.78125 -9.3125 C 13.570312 -8.9375 14.632812 -8.679688 15.96875 -8.546875 C 17.300781 -8.410156 19.421875 -8.285156 22.328125 -8.171875 C 24.503906 -8.078125 26.9375 -7.941406 29.625 -7.765625 C 33.46875 -7.484375 36.566406 -6.476562 38.921875 -4.75 C 41.285156 -3.03125 42.46875 -0.660156 42.46875 2.359375 C 42.46875 5.078125 41.453125 7.460938 39.421875 9.515625 C 37.398438 11.578125 34.671875 13.160156 31.234375 14.265625 C 27.804688 15.367188 24.035156 15.921875 19.921875 15.921875 C 16.503906 15.921875 13.539062 15.550781 11.03125 14.8125 C 8.519531 14.070312 6.601562 13.117188 5.28125 11.953125 C 3.96875 10.785156 3.3125 9.582031 3.3125 8.34375 C 3.3125 7.019531 3.867188 5.554688 4.984375 3.953125 C 6.109375 2.347656 7.863281 0.664062 10.25 -1.09375 C 8.5625 -1.78125 7.238281 -2.671875 6.28125 -3.765625 C 5.332031 -4.859375 4.859375 -6.066406 4.859375 -7.390625 C 4.859375 -8.992188 5.503906 -10.476562 6.796875 -11.84375 C 8.097656 -13.207031 9.945312 -14.582031 12.34375 -15.96875 C 9.945312 -17.332031 8.097656 -19.007812 6.796875 -21 C 5.503906 -23 4.859375 -25.269531 4.859375 -27.8125 C 4.859375 -30.53125 5.53125 -32.972656 6.875 -35.140625 C 8.21875 -37.304688 10.09375 -38.992188 12.5 -40.203125 C 14.90625 -41.410156 17.601562 -42.015625 20.59375 -42.015625 C 24.195312 -42.015625 27.523438 -41.210938 30.578125 -39.609375 C 30.878906 -39.734375 31.554688 -39.96875 32.609375 -40.3125 C 33.671875 -40.65625 34.9375 -40.992188 36.40625 -41.328125 C 37.875 -41.660156 39.210938 -41.828125 40.421875 -41.828125 C 40.847656 -41.828125 41.28125 -41.804688 41.71875 -41.765625 C 42.15625 -41.722656 42.4375 -41.6875 42.5625 -41.65625 Z M 12.9375 -28.765625 C 12.9375 -25.316406 13.648438 -22.488281 15.078125 -20.28125 C 16.515625 -18.070312 18.65625 -16.96875 21.5 -16.96875 C 23.957031 -16.96875 25.78125 -17.875 26.96875 -19.6875 C 28.164062 -21.5 28.765625 -23.96875 28.765625 -27.09375 C 28.765625 -29.539062 28.394531 -31.632812 27.65625 -33.375 C 26.914062 -35.113281 25.894531 -36.425781 24.59375 -37.3125 C 23.289062 -38.207031 21.835938 -38.65625 20.234375 -38.65625 C 18.867188 -38.65625 17.632812 -38.238281 16.53125 -37.40625 C 15.425781 -36.570312 14.550781 -35.40625 13.90625 -33.90625 C 13.257812 -32.414062 12.9375 -30.703125 12.9375 -28.765625 Z M 21.421875 -0.140625 C 19.117188 -0.171875 16.515625 -0.351562 13.609375 -0.6875 C 10.671875 1.820312 9.203125 4.125 9.203125 6.21875 C 9.203125 7.664062 9.875 8.835938 11.21875 9.734375 C 12.570312 10.628906 14.160156 11.253906 15.984375 11.609375 C 17.816406 11.972656 19.519531 12.15625 21.09375 12.15625 C 23.300781 12.15625 25.582031 11.90625 27.9375 11.40625 C 30.300781 10.90625 32.285156 10.140625 33.890625 9.109375 C 35.492188 8.085938 36.296875 6.835938 36.296875 5.359375 C 36.296875 3.722656 35.394531 2.4375 33.59375 1.5 C 31.789062 0.5625 29.015625 0.046875 25.265625 -0.046875 Z M 21.421875 -0.140625 "/></g></g></g><g fill="#206d3c" fill-opacity="1"><g transform="translate(182.549798, 184.742952)"><g><path d="M 42.78125 -36.53125 C 42.113281 -36.738281 41.023438 -36.84375 39.515625 -36.84375 C 38.304688 -36.84375 37.035156 -36.789062 35.703125 -36.6875 C 34.378906 -36.582031 33.519531 -36.5 33.125 -36.4375 C 33.125 -36.5 33.457031 -36.066406 34.125 -35.140625 C 34.789062 -34.210938 35.382812 -33.148438 35.90625 -31.953125 C 36.4375 -30.765625 36.703125 -29.582031 36.703125 -28.40625 C 36.703125 -25.34375 35.929688 -22.722656 34.390625 -20.546875 C 32.847656 -18.367188 30.84375 -16.726562 28.375 -15.625 C 25.914062 -14.519531 23.335938 -13.96875 20.640625 -13.96875 C 19.128906 -13.96875 17.195312 -14.242188 14.84375 -14.796875 C 14.75 -14.734375 14.398438 -14.503906 13.796875 -14.109375 C 13.035156 -13.628906 12.476562 -13.179688 12.125 -12.765625 C 11.78125 -12.359375 11.609375 -11.78125 11.609375 -11.03125 C 11.609375 -10.269531 12 -9.695312 12.78125 -9.3125 C 13.570312 -8.9375 14.632812 -8.679688 15.96875 -8.546875 C 17.300781 -8.410156 19.421875 -8.285156 22.328125 -8.171875 C 24.503906 -8.078125 26.9375 -7.941406 29.625 -7.765625 C 33.46875 -7.484375 36.566406 -6.476562 38.921875 -4.75 C 41.285156 -3.03125 42.46875 -0.660156 42.46875 2.359375 C 42.46875 5.078125 41.453125 7.460938 39.421875 9.515625 C 37.398438 11.578125 34.671875 13.160156 31.234375 14.265625 C 27.804688 15.367188 24.035156 15.921875 19.921875 15.921875 C 16.503906 15.921875 13.539062 15.550781 11.03125 14.8125 C 8.519531 14.070312 6.601562 13.117188 5.28125 11.953125 C 3.96875 10.785156 3.3125 9.582031 3.3125 8.34375 C 3.3125 7.019531 3.867188 5.554688 4.984375 3.953125 C 6.109375 2.347656 7.863281 0.664062 10.25 -1.09375 C 8.5625 -1.78125 7.238281 -2.671875 6.28125 -3.765625 C 5.332031 -4.859375 4.859375 -6.066406 4.859375 -7.390625 C 4.859375 -8.992188 5.503906 -10.476562 6.796875 -11.84375 C 8.097656 -13.207031 9.945312 -14.582031 12.34375 -15.96875 C 9.945312 -17.332031 8.097656 -19.007812 6.796875 -21 C 5.503906 -23 4.859375 -25.269531 4.859375 -27.8125 C 4.859375 -30.53125 5.53125 -32.972656 6.875 -35.140625 C 8.21875 -37.304688 10.09375 -38.992188 12.5 -40.203125 C 14.90625 -41.410156 17.601562 -42.015625 20.59375 -42.015625 C 24.195312 -42.015625 27.523438 -41.210938 30.578125 -39.609375 C 30.878906 -39.734375 31.554688 -39.96875 32.609375 -40.3125 C 33.671875 -40.65625 34.9375 -40.992188 36.40625 -41.328125 C 37.875 -41.660156 39.210938 -41.828125 40.421875 -41.828125 C 40.847656 -41.828125 41.28125 -41.804688 41.71875 -41.765625 C 42.15625 -41.722656 42.4375 -41.6875 42.5625 -41.65625 Z M 12.9375 -28.765625 C 12.9375 -25.316406 13.648438 -22.488281 15.078125 -20.28125 C 16.515625 -18.070312 18.65625 -16.96875 21.5 -16.96875 C 23.957031 -16.96875 25.78125 -17.875 26.96875 -19.6875 C 28.164062 -21.5 28.765625 -23.96875 28.765625 -27.09375 C 28.765625 -29.539062 28.394531 -31.632812 27.65625 -33.375 C 26.914062 -35.113281 25.894531 -36.425781 24.59375 -37.3125 C 23.289062 -38.207031 21.835938 -38.65625 20.234375 -38.65625 C 18.867188 -38.65625 17.632812 -38.238281 16.53125 -37.40625 C 15.425781 -36.570312 14.550781 -35.40625 13.90625 -33.90625 C 13.257812 -32.414062 12.9375 -30.703125 12.9375 -28.765625 Z M 21.421875 -0.140625 C 19.117188 -0.171875 16.515625 -0.351562 13.609375 -0.6875 C 10.671875 1.820312 9.203125 4.125 9.203125 6.21875 C 9.203125 7.664062 9.875 8.835938 11.21875 9.734375 C 12.570312 10.628906 14.160156 11.253906 15.984375 11.609375 C 17.816406 11.972656 19.519531 12.15625 21.09375 12.15625 C 23.300781 12.15625 25.582031 11.90625 27.9375 11.40625 C 30.300781 10.90625 32.285156 10.140625 33.890625 9.109375 C 35.492188 8.085938 36.296875 6.835938 36.296875 5.359375 C 36.296875 3.722656 35.394531 2.4375 33.59375 1.5 C 31.789062 0.5625 29.015625 0.046875 25.265625 -0.046875 Z M 21.421875 -0.140625 "/></g></g></g><g fill="#206d3c" fill-opacity="1"><g transform="translate(220.437027, 184.742952)"><g><path d="M 13.296875 -62.4375 C 14.742188 -62.4375 15.984375 -61.921875 17.015625 -60.890625 C 18.046875 -59.859375 18.5625 -58.617188 18.5625 -57.171875 C 18.5625 -55.691406 18.046875 -54.441406 17.015625 -53.421875 C 15.984375 -52.410156 14.742188 -51.90625 13.296875 -51.90625 C 11.816406 -51.90625 10.566406 -52.410156 9.546875 -53.421875 C 8.535156 -54.441406 8.03125 -55.691406 8.03125 -57.171875 C 8.03125 -58.617188 8.535156 -59.859375 9.546875 -60.890625 C 10.566406 -61.921875 11.816406 -62.4375 13.296875 -62.4375 Z M 9.671875 -32.984375 C 9.273438 -33.679688 8.539062 -34.304688 7.46875 -34.859375 C 6.394531 -35.421875 5.289062 -35.890625 4.15625 -36.265625 C 3.019531 -36.648438 2.453125 -36.828125 2.453125 -36.796875 L 2.546875 -38.390625 L 15.296875 -41.46875 L 18.109375 -41.65625 L 18.109375 -9.984375 C 18.109375 -8.921875 18.21875 -7.921875 18.4375 -6.984375 C 18.664062 -6.046875 19.363281 -5.09375 20.53125 -4.125 C 21.695312 -3.15625 23.535156 -2.535156 26.046875 -2.265625 C 26.046875 -1.265625 26.03125 -0.507812 26 0 L 2.3125 0 C 2.25 -0.539062 2.21875 -1.296875 2.21875 -2.265625 L 3.5 -2.625 C 4.820312 -2.988281 5.890625 -3.351562 6.703125 -3.71875 C 7.523438 -4.082031 8.222656 -4.617188 8.796875 -5.328125 C 9.378906 -6.035156 9.671875 -7 9.671875 -8.21875 Z M 9.671875 -32.984375 "/></g></g></g><g fill="#206d3c" fill-opacity="1"><g transform="translate(239.859207, 184.742952)"><g><path d="M 11.75 -23.859375 C 11.71875 -23.554688 11.703125 -23.117188 11.703125 -22.546875 C 11.703125 -18.734375 12.390625 -15.550781 13.765625 -13 C 15.140625 -10.445312 16.984375 -8.554688 19.296875 -7.328125 C 21.617188 -6.097656 24.21875 -5.484375 27.09375 -5.484375 C 30.894531 -5.484375 34.566406 -6.570312 38.109375 -8.75 L 39.421875 -7.484375 C 38.703125 -5.734375 37.488281 -4.222656 35.78125 -2.953125 C 34.070312 -1.679688 32.132812 -0.71875 29.96875 -0.0625 C 27.800781 0.582031 25.707031 0.90625 23.6875 0.90625 C 19.875 0.90625 16.445312 0.015625 13.40625 -1.765625 C 10.363281 -3.554688 7.988281 -6.050781 6.28125 -9.25 C 4.570312 -12.457031 3.71875 -16.132812 3.71875 -20.28125 C 3.71875 -24.488281 4.640625 -28.25 6.484375 -31.5625 C 8.328125 -34.875 10.785156 -37.441406 13.859375 -39.265625 C 16.929688 -41.097656 20.222656 -42.015625 23.734375 -42.015625 C 26.609375 -42.015625 29.203125 -41.429688 31.515625 -40.265625 C 33.828125 -39.097656 35.707031 -37.460938 37.15625 -35.359375 C 38.613281 -33.265625 39.535156 -30.851562 39.921875 -28.125 C 40.253906 -26.738281 40.421875 -25.457031 40.421875 -24.28125 L 40.421875 -23.859375 Z M 28.078125 -26.765625 C 29.410156 -26.828125 30.53125 -27.070312 31.4375 -27.5 C 31.226562 -31.09375 30.390625 -33.898438 28.921875 -35.921875 C 27.453125 -37.953125 25.375 -38.96875 22.6875 -38.96875 C 20.71875 -38.96875 18.96875 -38.378906 17.4375 -37.203125 C 15.914062 -36.023438 14.6875 -34.457031 13.75 -32.5 C 12.8125 -30.550781 12.207031 -28.414062 11.9375 -26.09375 Z M 28.078125 -26.765625 "/></g></g></g><g clip-path="url(#1bca3e9fec)"><g clip-path="url(#319eed020a)"><g clip-path="url(#74569c0caa)"><path fill="#206d3c" d="M 131.351562 139.609375 C 130.269531 136.871094 128.699219 131.550781 130.597656 125.992188 C 133.714844 116.867188 144.960938 110.625 158.203125 111.921875 C 159.59375 123.222656 154.902344 133.613281 146.5625 138.039062 C 140.945312 141.023438 135.25 140.464844 132.554688 140 C 135.394531 137.992188 138.59375 135.398438 141.8125 132.085938 C 146.78125 126.976562 150.15625 121.855469 152.414062 117.753906 C 149.230469 121.898438 145.421875 126.363281 140.894531 130.902344 C 137.628906 134.179688 134.417969 137.070312 131.351562 139.609375 Z M 131.351562 139.609375 " fill-opacity="1" fill-rule="nonzero"/></g></g></g><g clip-path="url(#a71a95e9bb)"><g clip-path="url(#17d2bfb08c)"><g clip-path="url(#72f9ca0f01)"><path fill="#206d3c" d="M 127.804688 139.789062 C 125.714844 140.34375 121.699219 141.035156 117.804688 139.175781 C 111.417969 136.128906 107.820312 127.390625 109.894531 117.839844 C 118.257812 117.789062 125.4375 122.097656 127.957031 128.558594 C 129.652344 132.910156 128.761719 137.019531 128.191406 138.941406 C 126.96875 136.703125 125.347656 134.148438 123.207031 131.515625 C 119.902344 127.457031 116.457031 124.558594 113.65625 122.5625 C 116.40625 125.238281 119.339844 128.398438 122.265625 132.085938 C 124.378906 134.746094 126.214844 137.335938 127.804688 139.789062 Z M 127.804688 139.789062 " fill-opacity="1" fill-rule="nonzero"/></g></g></g><g fill="#206d3c" fill-opacity="1"><g transform="translate(136.848116, 248.604281)"><g><path d="M 22.234375 0.90625 C 18.578125 0.90625 15.753906 -0.00390625 13.765625 -1.828125 C 11.785156 -3.660156 10.445312 -6.046875 9.75 -8.984375 C 9.0625 -11.921875 8.71875 -15.414062 8.71875 -19.46875 L 8.71875 -32.984375 C 8.320312 -33.679688 7.585938 -34.304688 6.515625 -34.859375 C 5.441406 -35.421875 4.335938 -35.890625 3.203125 -36.265625 C 2.066406 -36.648438 1.5 -36.828125 1.5 -36.796875 L 1.59375 -38.390625 L 14.34375 -41.46875 L 17.15625 -41.65625 L 17.15625 -19.96875 C 17.15625 -16.09375 17.394531 -13.039062 17.875 -10.8125 C 18.363281 -8.59375 19.179688 -6.976562 20.328125 -5.96875 C 21.472656 -4.957031 23.078125 -4.453125 25.140625 -4.453125 C 29.335938 -4.453125 33.300781 -6.296875 37.03125 -9.984375 L 37.03125 -32.984375 C 36.632812 -33.679688 35.898438 -34.304688 34.828125 -34.859375 C 33.753906 -35.421875 32.648438 -35.890625 31.515625 -36.265625 C 30.378906 -36.648438 29.8125 -36.828125 29.8125 -36.796875 L 29.90625 -38.390625 L 42.65625 -41.46875 L 45.46875 -41.65625 L 45.46875 -9.125 C 45.46875 -7.851562 45.785156 -6.875 46.421875 -6.1875 C 47.054688 -5.507812 47.84375 -5.019531 48.78125 -4.71875 C 49.71875 -4.414062 51 -4.128906 52.625 -3.859375 C 52.625 -3.398438 52.601562 -2.925781 52.5625 -2.4375 C 52.519531 -1.957031 52.5 -1.628906 52.5 -1.453125 L 37.609375 0.6875 L 37.25 -6.578125 C 32.769531 -1.585938 27.765625 0.90625 22.234375 0.90625 Z M 22.234375 0.90625 "/></g></g></g><g fill="#206d3c" fill-opacity="1"><g transform="translate(183.355385, 248.604281)"><g><path d="M 31.359375 -28.625 C 30.929688 -28.59375 30.21875 -28.578125 29.21875 -28.578125 C 28.34375 -31.640625 27.019531 -34.132812 25.25 -36.0625 C 23.476562 -38 21.21875 -38.96875 18.46875 -38.96875 C 16.5625 -38.96875 15.054688 -38.5 13.953125 -37.5625 C 12.847656 -36.625 12.296875 -35.265625 12.296875 -33.484375 C 12.296875 -32.242188 12.75 -31.09375 13.65625 -30.03125 C 14.5625 -28.976562 15.671875 -28.050781 16.984375 -27.25 C 18.304688 -26.445312 20.039062 -25.5 22.1875 -24.40625 C 22.695312 -24.164062 23.46875 -23.773438 24.5 -23.234375 C 27.882812 -21.421875 30.351562 -19.566406 31.90625 -17.671875 C 33.46875 -15.785156 34.25 -13.476562 34.25 -10.75 C 34.25 -8.238281 33.628906 -6.113281 32.390625 -4.375 C 31.148438 -2.632812 29.441406 -1.316406 27.265625 -0.421875 C 25.085938 0.460938 22.59375 0.90625 19.78125 0.90625 C 17.300781 0.90625 14.789062 0.609375 12.25 0.015625 C 9.707031 -0.566406 7.617188 -1.359375 5.984375 -2.359375 L 5.984375 -13.4375 C 7.171875 -13.582031 7.972656 -13.65625 8.390625 -13.65625 C 9.085938 -10.300781 10.320312 -7.5625 12.09375 -5.4375 C 13.863281 -3.320312 16.289062 -2.265625 19.375 -2.265625 C 21.582031 -2.265625 23.421875 -2.816406 24.890625 -3.921875 C 26.359375 -5.023438 27.09375 -6.484375 27.09375 -8.296875 C 27.09375 -9.453125 26.757812 -10.46875 26.09375 -11.34375 C 25.425781 -12.21875 24.5625 -12.988281 23.5 -13.65625 C 22.445312 -14.320312 20.859375 -15.210938 18.734375 -16.328125 C 15.890625 -17.847656 13.726562 -19.078125 12.25 -20.015625 C 9.945312 -21.429688 8.210938 -23.015625 7.046875 -24.765625 C 5.890625 -26.523438 5.3125 -28.613281 5.3125 -31.03125 C 5.3125 -33.363281 5.898438 -35.351562 7.078125 -37 C 8.253906 -38.644531 9.851562 -39.890625 11.875 -40.734375 C 13.90625 -41.585938 16.191406 -42.015625 18.734375 -42.015625 C 21.066406 -42.015625 23.28125 -41.726562 25.375 -41.15625 C 27.476562 -40.582031 29.378906 -39.765625 31.078125 -38.703125 Z M 31.359375 -28.625 "/></g></g></g><g fill="#206d3c" fill-opacity="1"><g transform="translate(214.573412, 248.604281)"><g><path d="M 11.75 -23.859375 C 11.71875 -23.554688 11.703125 -23.117188 11.703125 -22.546875 C 11.703125 -18.734375 12.390625 -15.550781 13.765625 -13 C 15.140625 -10.445312 16.984375 -8.554688 19.296875 -7.328125 C 21.617188 -6.097656 24.21875 -5.484375 27.09375 -5.484375 C 30.894531 -5.484375 34.566406 -6.570312 38.109375 -8.75 L 39.421875 -7.484375 C 38.703125 -5.734375 37.488281 -4.222656 35.78125 -2.953125 C 34.070312 -1.679688 32.132812 -0.71875 29.96875 -0.0625 C 27.800781 0.582031 25.707031 0.90625 23.6875 0.90625 C 19.875 0.90625 16.445312 0.015625 13.40625 -1.765625 C 10.363281 -3.554688 7.988281 -6.050781 6.28125 -9.25 C 4.570312 -12.457031 3.71875 -16.132812 3.71875 -20.28125 C 3.71875 -24.488281 4.640625 -28.25 6.484375 -31.5625 C 8.328125 -34.875 10.785156 -37.441406 13.859375 -39.265625 C 16.929688 -41.097656 20.222656 -42.015625 23.734375 -42.015625 C 26.609375 -42.015625 29.203125 -41.429688 31.515625 -40.265625 C 33.828125 -39.097656 35.707031 -37.460938 37.15625 -35.359375 C 38.613281 -33.265625 39.535156 -30.851562 39.921875 -28.125 C 40.253906 -26.738281 40.421875 -25.457031 40.421875 -24.28125 L 40.421875 -23.859375 Z M 28.078125 -26.765625 C 29.410156 -26.828125 30.53125 -27.070312 31.4375 -27.5 C 31.226562 -31.09375 30.390625 -33.898438 28.921875 -35.921875 C 27.453125 -37.953125 25.375 -38.96875 22.6875 -38.96875 C 20.71875 -38.96875 18.96875 -38.378906 17.4375 -37.203125 C 15.914062 -36.023438 14.6875 -34.457031 13.75 -32.5 C 12.8125 -30.550781 12.207031 -28.414062 11.9375 -26.09375 Z M 28.078125 -26.765625 "/></g></g></g><g fill="#206d3c" fill-opacity="1"><g transform="translate(250.736633, 248.604281)"><g><path d="M 17.421875 -10.484375 C 17.421875 -9.054688 17.578125 -7.789062 17.890625 -6.6875 C 18.210938 -5.582031 18.976562 -4.609375 20.1875 -3.765625 C 21.394531 -2.921875 23.210938 -2.421875 25.640625 -2.265625 L 25.59375 0 L 1.953125 0 C 1.953125 -0.238281 1.941406 -0.628906 1.921875 -1.171875 C 1.910156 -1.722656 1.921875 -2.148438 1.953125 -2.453125 L 3.453125 -2.859375 C 5.054688 -3.285156 6.203125 -3.675781 6.890625 -4.03125 C 7.585938 -4.394531 8.109375 -5.035156 8.453125 -5.953125 C 8.804688 -6.878906 8.984375 -8.296875 8.984375 -10.203125 L 8.984375 -33.03125 C 8.585938 -33.695312 7.859375 -34.304688 6.796875 -34.859375 C 5.742188 -35.421875 4.648438 -35.882812 3.515625 -36.25 C 2.378906 -36.613281 1.8125 -36.78125 1.8125 -36.75 L 1.90625 -38.34375 L 13.96875 -41.5625 L 16.5625 -41.5625 L 17.28125 -33.21875 C 18.976562 -36.332031 20.738281 -38.535156 22.5625 -39.828125 C 24.394531 -41.128906 26.492188 -41.78125 28.859375 -41.78125 C 30.066406 -41.78125 31.160156 -41.53125 32.140625 -41.03125 C 33.128906 -40.539062 33.898438 -39.90625 34.453125 -39.125 C 35.015625 -38.351562 35.296875 -37.578125 35.296875 -36.796875 C 35.296875 -36.285156 35.148438 -35.585938 34.859375 -34.703125 C 34.578125 -33.828125 34.140625 -33.054688 33.546875 -32.390625 C 32.960938 -31.722656 32.242188 -31.390625 31.390625 -31.390625 C 30.429688 -31.390625 29.675781 -31.609375 29.125 -32.046875 C 28.582031 -32.492188 28.023438 -33.15625 27.453125 -34.03125 C 27.023438 -34.695312 26.625 -35.195312 26.25 -35.53125 C 25.875 -35.863281 25.394531 -36.03125 24.8125 -36.03125 C 23.84375 -36.03125 22.972656 -35.75 22.203125 -35.1875 C 21.429688 -34.625 20.757812 -33.929688 20.1875 -33.109375 C 19.613281 -32.296875 18.921875 -31.210938 18.109375 -29.859375 L 17.421875 -28.71875 Z M 17.421875 -10.484375 "/></g></g></g></svg>